<svg xmlns="http://www.w3.org/2000/svg" width="67.57" height="67.57" viewBox="0 0 67.57 67.57">
    <path class="a" d="M830.291,378.63v-2.124a28.506,28.506,0,0,0-57.012,0v2.124A7.271,7.271,0,0,0,768,385.612V396.17a7.267,7.267,0,0,0,7.258,7.258h7.919a1.979,1.979,0,0,0,1.979-1.98V376.506a16.629,16.629,0,0,1,33.257,0v24.943a1.979,1.979,0,0,0,1.979,1.98h3.3v2.244a1.982,1.982,0,0,1-1.98,1.98H808.7a5.948,5.948,0,0,0-5.6-3.959h-2.64a5.939,5.939,0,0,0,0,11.878h2.64a5.948,5.948,0,0,0,5.6-3.959h13.01a5.946,5.946,0,0,0,5.939-5.939v-2.244h.66a7.267,7.267,0,0,0,7.259-7.258V385.612a7.271,7.271,0,0,0-5.279-6.982ZM803.1,411.61h-2.64a1.98,1.98,0,1,1,0-3.959h2.64a1.98,1.98,0,0,1,0,3.959ZM781.2,399.469h-5.939a3.3,3.3,0,0,1-3.3-3.3V385.612a3.3,3.3,0,0,1,3.3-3.3H781.2Zm20.587-43.551A20.61,20.61,0,0,0,781.2,376.506v1.848h-3.959v-1.848a24.547,24.547,0,1,1,49.093,0v1.848h-3.959v-1.848a20.61,20.61,0,0,0-20.588-20.588ZM831.61,396.17a3.3,3.3,0,0,1-3.3,3.3h-5.939V382.313h5.939a3.3,3.3,0,0,1,3.3,3.3Zm0,0" transform="translate(-768 -348)"/>
    <path class="b" d="M905.3,508.935a1.979,1.979,0,0,0,3.247-1.52V502.8h.66a4.625,4.625,0,0,0,4.619-4.619V487.619A4.625,4.625,0,0,0,909.206,483H893.369a4.625,4.625,0,0,0-4.619,4.619v10.558a4.625,4.625,0,0,0,4.619,4.619h4.562Zm-12.59-10.758V487.619a.661.661,0,0,1,.66-.66h15.837a.661.661,0,0,1,.66.66v10.558a.661.661,0,0,1-.66.66h-2.64a1.979,1.979,0,0,0-1.979,1.98v2.372l-4.671-3.892a1.978,1.978,0,0,0-1.267-.459h-5.279a.661.661,0,0,1-.66-.66Zm0,0" transform="translate(-867.503 -459.245)"/>
    <path class="b" d="M941.008,531.959a1.98,1.98,0,1,0,0-3.959H935.73a1.98,1.98,0,1,0,0,3.959Zm0,0" transform="translate(-904.584 -496.327)"/>
</svg>