<svg xmlns="http://www.w3.org/2000/svg" width="62.347" height="62.347" viewBox="0 0 62.347 62.347">
    <g transform="translate(0 0)">
        <path class="a" d="M31.173,0A31.174,31.174,0,1,0,62.347,31.174,31.173,31.173,0,0,0,31.173,0Zm0,58.45A27.277,27.277,0,1,1,58.45,31.174,27.277,27.277,0,0,1,31.173,58.45Z" transform="translate(0 0)"/>
        <path class="b" d="M149.433,107.86h0a1.954,1.954,0,0,0,0,2.767l3.093,3.08H131.9a3.9,3.9,0,0,0-3.9,3.9v3.9a1.948,1.948,0,0,0,1.948,1.948h0A1.948,1.948,0,0,0,131.9,121.5v-3.9H152.53l-3.088,3.088a1.943,1.943,0,0,0,0,2.747h0a1.943,1.943,0,0,0,2.747,0l6.42-6.42a1.948,1.948,0,0,0,0-2.747L152.2,107.86A1.954,1.954,0,0,0,149.433,107.86Z" transform="translate(-112.413 -94.223)"/>
        <path class="b" d="M155.265,272.451H134.632l3.41-3.41a1.487,1.487,0,0,0,0-2.1l-.644-.644a1.487,1.487,0,0,0-2.1,0l-6.742,6.742a1.948,1.948,0,0,0,0,2.747l6.74,6.74a1.489,1.489,0,0,0,2.106,0l.644-.644a1.489,1.489,0,0,0,0-2.1l-3.413-3.428h21.089a3.441,3.441,0,0,0,3.441-3.441V268.1a1.493,1.493,0,0,0-1.493-1.493h-.911a1.493,1.493,0,0,0-1.493,1.493Z" transform="translate(-112.402 -233.484)"/>
    </g>
</svg>