<svg xmlns="http://www.w3.org/2000/svg" width="23.561" height="23.56" viewBox="0 0 23.561 23.56">
    <g transform="translate(12.762 5.888)">
        <path class="a" d="M991.386,493.481H982.06a.736.736,0,1,1,0-1.473h9.326a.736.736,0,0,1,0,1.473Zm0,0" transform="translate(-981.324 -488.325)"/>
        <path class="a" d="M1104.729,420.81a.737.737,0,0,1-.52-1.257l3.161-3.161-3.161-3.161a.736.736,0,1,1,1.042-1.042l3.681,3.681a.736.736,0,0,1,0,1.042l-3.681,3.681a.731.731,0,0,1-.521.217Zm0,0" transform="translate(-1098.348 -411.974)"/>
    </g>
    <path class="b" d="M718.97,291.869a.737.737,0,0,0,.736-.736v-4.417a2.7,2.7,0,0,0-2.7-2.7H705.964A1.965,1.965,0,0,0,704,285.979v17.67a1.981,1.981,0,0,0,1.337,1.867l5.908,1.968a2.025,2.025,0,0,0,.609.091,1.965,1.965,0,0,0,1.963-1.963v-.982h3.191a2.7,2.7,0,0,0,2.7-2.7v-4.417a.736.736,0,1,0-1.472,0v4.417a1.229,1.229,0,0,1-1.227,1.227h-3.191V287.943a1.981,1.981,0,0,0-1.337-1.867l-1.762-.587h6.289a1.229,1.229,0,0,1,1.227,1.227v4.417A.736.736,0,0,0,718.97,291.869Zm-6.967-4.4a.51.51,0,0,1,.341.473v17.67a.492.492,0,0,1-.491.491.533.533,0,0,1-.16-.022l-5.88-1.959a.51.51,0,0,1-.341-.473v-17.67a.492.492,0,0,1,.491-.491.534.534,0,0,1,.16.022Z" transform="translate(-704 -284.016)"/>
</svg>