<svg xmlns="http://www.w3.org/2000/svg" width="50" height="50" viewBox="0 0 50 50"><g transform="translate(-319.995 -320)"><g transform="translate(319.995 320)"><path class="a" d="M345,320a25,25,0,1,0,25,25,25,25,0,0,0-25-25Zm0,48.333A23.333,23.333,0,1,1,368.328,345,23.333,23.333,0,0,1,345,368.333Zm0,0" transform="translate(-319.995 -320)"/></g><path class="a" d="M464.5,590H452.833a.834.834,0,0,0-.833.833V597.5a.834.834,0,0,0,.833.833H464.5a.834.834,0,0,0,.833-.833v-6.667A.834.834,0,0,0,464.5,590Zm-.833,6.667h-10v-5h10Zm0,0" transform="translate(-113.671 -232.501)"/><path class="b" d="M370.833,350A20.852,20.852,0,0,0,350,370.833a.834.834,0,0,0,.833.833H357.5a.834.834,0,0,0,.833-.833,12.5,12.5,0,0,1,20.408-9.675l-5.408,4.417a5.866,5.866,0,1,0,2.758,2.758l4.417-5.408a12.437,12.437,0,0,1,2.825,7.908.834.834,0,0,0,.833.833h6.667a.834.834,0,0,0,.833-.833A20.852,20.852,0,0,0,370.833,350Zm-14.141,20h-5.008a19.106,19.106,0,0,1,2.15-8.016l4.35,2.508A13.943,13.943,0,0,0,356.692,370Zm2.325-6.95-4.342-2.509a19.225,19.225,0,0,1,5.866-5.866l2.5,4.333a14.3,14.3,0,0,0-4.024,4.042ZM370,356.708a14.073,14.073,0,0,0-5.508,1.466l-2.508-4.341a19.106,19.106,0,0,1,8.016-2.15ZM370.833,375a4.167,4.167,0,0,1,0-8.333,4.548,4.548,0,0,1,1.009.125l-2.717,2.217a.4.4,0,0,0-.058.059A2.5,2.5,0,1,0,372.6,372.6a.4.4,0,0,0,.059-.058l2.217-2.717a4.545,4.545,0,0,1,.125,1.009A4.166,4.166,0,0,1,370.833,375Zm.566-3.55a.868.868,0,0,1-1.158-.025.825.825,0,0,1-.241-.592.844.844,0,0,1,.216-.566l6.417-5.234Zm.267-14.741v-5.025a19.106,19.106,0,0,1,8.016,2.15l-2.508,4.341a14.073,14.073,0,0,0-5.508-1.466Zm10.983,6.342a13.929,13.929,0,0,0-1.075-1.433l1.567-1.925a.829.829,0,0,0-1.167-1.167l-1.933,1.575a14.972,14.972,0,0,0-1.417-1.092l2.5-4.333a19.224,19.224,0,0,1,5.866,5.866Zm2.325,6.95a13.943,13.943,0,0,0-1.492-5.508l4.35-2.508a19.107,19.107,0,0,1,2.15,8.016Zm0,0" transform="translate(-25.838 -25.833)"/><path class="b" d="M556.5,542a2.5,2.5,0,1,0,2.5,2.5,2.5,2.5,0,0,0-2.5-2.5Zm0,3.333a.833.833,0,1,1,.833-.833.833.833,0,0,1-.833.833Zm0,0" transform="translate(-201.506 -191.167)"/><path class="b" d="M604.5,542a2.5,2.5,0,1,0,2.5,2.5,2.5,2.5,0,0,0-2.5-2.5Zm0,3.333a.833.833,0,1,1,.833-.833.834.834,0,0,1-.833.833Zm0,0" transform="translate(-242.839 -191.167)"/><path class="b" d="M412.5,542a2.5,2.5,0,1,0,2.5,2.5,2.5,2.5,0,0,0-2.5-2.5Zm0,3.333a.833.833,0,1,1,.833-.833.833.833,0,0,1-.833.833Zm0,0" transform="translate(-77.505 -191.167)"/><path class="b" d="M364.5,542a2.5,2.5,0,1,0,2.5,2.5,2.5,2.5,0,0,0-2.5-2.5Zm0,3.333a.833.833,0,1,1,.833-.833.833.833,0,0,1-.833.833Zm0,0" transform="translate(-36.172 -191.167)"/><rect class="a" width="1.587" height="1.587" transform="translate(339.438 352.933)"/><rect class="a" width="3.968" height="1.587" transform="translate(342.612 352.933)"/><rect class="a" width="0.794" height="1.587" transform="translate(348.961 352.933)"/></g></svg>