<svg xmlns="http://www.w3.org/2000/svg" width="50" height="50" viewBox="0 0 50 50"><defs><style>.a{fill:#005fab;}.b{fill:#0090df;}</style></defs><g transform="translate(-319.999 -319.998)"><path class="a" d="M383.166,513V499.667H384a.833.833,0,0,0,.833-.833V495.5a.833.833,0,0,0-.833-.833h-9.167V493h.833a.833.833,0,0,0,.833-.833v-3.333a.833.833,0,0,0-.833-.833h-20a.833.833,0,0,0-.833.833v3.333a.833.833,0,0,0,.833.833h.833v1.667h-9.167a.833.833,0,0,0-.833.833v3.333a.833.833,0,0,0,.833.833h.833V513h-3.333a.833.833,0,0,0-.833.833h0a.833.833,0,0,0,.833.833H386.5a.833.833,0,0,0,.833-.833h0A.833.833,0,0,0,386.5,513ZM356.5,513h-6.667V499.667H356.5Zm0-15h-8.333v-1.667H356.5Zm0-8.333h18.333v1.667H356.5ZM367.333,513H364v-3.333h3.333Zm5.833,0H369v-3.333h0a.833.833,0,0,0,.833-.833h0A.833.833,0,0,0,369,508h-6.667a.833.833,0,0,0-.833.833h0a.833.833,0,0,0,.833.833h0V513h-4.167V493h15Zm8.333,0h-6.667V499.667H381.5Zm-6.667-15v-1.667h8.333V498Zm0,0" transform="translate(-20.668 -144.668)"/><rect class="b" width="1.651" height="1.651" rx="0.825" transform="translate(339.102 349.951)"/><rect class="b" width="1.651" height="1.651" rx="0.825" transform="translate(342.404 349.951)"/><rect class="b" width="1.651" height="1.651" rx="0.825" transform="translate(345.942 349.951)"/><rect class="b" width="1.651" height="1.651" rx="0.825" transform="translate(349.244 349.951)"/><rect class="b" width="1.651" height="1.651" rx="0.825" transform="translate(339.102 353.253)"/><rect class="b" width="1.651" height="1.651" rx="0.825" transform="translate(342.404 353.253)"/><rect class="b" width="1.651" height="1.651" rx="0.825" transform="translate(345.942 353.253)"/><rect class="b" width="1.651" height="1.651" rx="0.825" transform="translate(349.244 353.253)"/><rect class="b" width="1.651" height="1.65" rx="0.825" transform="translate(339.102 356.554)"/><rect class="b" width="1.651" height="1.652" rx="0.825" transform="translate(342.404 356.554)"/><rect class="b" width="1.651" height="1.652" rx="0.825" transform="translate(345.942 356.554)"/><rect class="b" width="1.651" height="1.652" rx="0.825" transform="translate(349.244 356.554)"/><rect class="b" width="1.651" height="1.651" rx="0.825" transform="translate(339.102 360.092)"/><rect class="b" width="1.651" height="1.651" rx="0.825" transform="translate(342.404 360.092)"/><rect class="b" width="1.651" height="1.651" rx="0.825" transform="translate(345.942 360.092)"/><rect class="b" width="1.651" height="1.651" rx="0.825" transform="translate(349.244 360.092)"/><rect class="b" width="3.302" height="1.887" rx="0.943" transform="translate(355.848 356.554)"/><rect class="b" width="3.302" height="1.651" rx="0.825" transform="translate(355.848 360.092)"/><rect class="b" width="3.302" height="1.651" rx="0.825" transform="translate(355.848 363.394)"/><rect class="b" width="3.302" height="1.887" rx="0.943" transform="translate(330.848 356.554)"/><rect class="b" width="3.302" height="1.651" rx="0.825" transform="translate(330.848 360.092)"/><rect class="b" width="3.302" height="1.651" rx="0.825" transform="translate(330.848 363.394)"/><rect class="a" width="1.651" height="1.651" rx="0.825" transform="translate(368.348 368.347)"/><rect class="a" width="1.651" height="1.651" rx="0.825" transform="translate(319.999 368.347)"/><rect class="b" width="1.887" height="1.651" rx="0.825" transform="translate(344.055 330.847)"/><path class="b" d="M482.055,375.9a.832.832,0,0,0,1.011.128,2.5,2.5,0,0,1,2.541,0,.832.832,0,0,0,1.011-.128h0a.833.833,0,0,0-.162-1.305,4.181,4.181,0,0,0-4.24,0,.833.833,0,0,0-.162,1.305Z" transform="translate(-139.338 -46.519)"/><g transform="translate(336.665 319.998)"><path class="b" d="M474.09,351.6a7.511,7.511,0,0,0-9.206,0,.832.832,0,0,0-.073,1.244h0a.826.826,0,0,0,1.088.078,5.843,5.843,0,0,1,7.177,0,.826.826,0,0,0,1.088-.078h0A.833.833,0,0,0,474.09,351.6Z" transform="translate(-461.154 -345.853)"/><path class="b" d="M448.333,336.665A8.333,8.333,0,1,0,440,328.332a8.333,8.333,0,0,0,8.333,8.333Zm0-15a6.667,6.667,0,1,1-6.667,6.667,6.667,6.667,0,0,1,6.667-6.667Zm0,0" transform="translate(-440 -319.998)"/></g><path class="a" d="M552,410h-4.167a.833.833,0,0,0-.589.244l-5,5a.833.833,0,0,0-.244.589v2.5a.833.833,0,0,0,.833.833h0a.833.833,0,0,0,.833-.833v-2.155l4.512-4.512H552a.833.833,0,0,0,.833-.833h0A.833.833,0,0,0,552,410Zm.833,0" transform="translate(-191.168 -77.502)"/><g transform="translate(363.332 319.999)"><path class="b" d="M634.5,398a2.5,2.5,0,1,0,2.5,2.5,2.5,2.5,0,0,0-2.5-2.5Zm0,3.333a.833.833,0,1,1,.833-.833.833.833,0,0,1-.833.833Zm0,0" transform="translate(-632.001 -387.167)"/><path class="b" d="M634.5,325a2.5,2.5,0,1,0-2.5-2.5,2.5,2.5,0,0,0,2.5,2.5Zm0-3.333a.833.833,0,1,1-.833.833.833.833,0,0,1,.833-.833Zm0,0" transform="translate(-632 -320.001)"/></g><path class="a" d="M578.422,362.743l1.077-1.077a.833.833,0,0,0,0-1.178h0a.833.833,0,0,0-1.178,0l-.833.833h-4.655a.833.833,0,0,0-.833.833h0a.833.833,0,0,0,.833.833h5a.834.834,0,0,0,.589-.244Zm0,0" transform="translate(-217.001 -34.655)"/><path class="a" d="M390.833,418.333v-2.5a.833.833,0,0,0-.244-.589l-5-5A.833.833,0,0,0,385,410h-4.166a.833.833,0,0,0-.833.833h0a.833.833,0,0,0,.833.833h3.822l4.512,4.512v2.155a.833.833,0,0,0,.833.833h0A.833.833,0,0,0,390.833,418.333Zm0,.833" transform="translate(-51.668 -77.502)"/><g transform="translate(321.666 319.999)"><path class="b" d="M337,400.5a2.5,2.5,0,1,0-2.5,2.5,2.5,2.5,0,0,0,2.5-2.5Zm-3.333,0a.833.833,0,1,1,.833.833.833.833,0,0,1-.833-.833Zm0,0" transform="translate(-332.001 -387.168)"/><path class="b" d="M334.5,325a2.5,2.5,0,1,0-2.5-2.5,2.5,2.5,0,0,0,2.5,2.5Zm0-3.333a.833.833,0,1,1-.833.833.833.833,0,0,1,.833-.833Zm0,0" transform="translate(-332 -320.001)"/></g><path class="a" d="M374.153,362.987h5a.833.833,0,0,0,.833-.833h0a.833.833,0,0,0-.833-.833H374.5l-.833-.833a.833.833,0,0,0-1.178,0h0a.833.833,0,0,0,0,1.178l1.077,1.077a.834.834,0,0,0,.589.244Zm0,0" transform="translate(-44.988 -34.655)"/><rect class="a" width="1.651" height="1.651" rx="0.825" transform="translate(342.404 338.394)"/><rect class="a" width="1.651" height="1.651" rx="0.825" transform="translate(345.942 338.394)"/><rect class="b" width="1.651" height="1.651" rx="0.825" transform="translate(360.093 346.649)"/><rect class="b" width="1.651" height="1.651" rx="0.825" transform="translate(360.093 343.347)"/><rect class="b" width="1.651" height="3.302" rx="0.825" transform="translate(360.093 338.394)"/><rect class="b" width="1.651" height="1.651" rx="0.825" transform="translate(328.253 346.649)"/><rect class="b" width="1.651" height="1.651" rx="0.825" transform="translate(328.253 343.347)"/><rect class="b" width="1.651" height="3.302" rx="0.825" transform="translate(328.253 338.394)"/></g></svg>