<svg xmlns="http://www.w3.org/2000/svg" width="65.216" height="67.593" viewBox="0 0 65.216 67.593">

    <path class="a" d="M831.014,546.75H820.98a1.98,1.98,0,1,0,0,3.961h10.033a1.98,1.98,0,1,0,0-3.961Zm0,0" transform="translate(-811.079 -511.766)"/>
    <path class="a" d="M831.014,498.75H820.98a1.98,1.98,0,1,0,0,3.96h10.033a1.98,1.98,0,1,0,0-3.96Zm0,0" transform="translate(-811.079 -472.215)"/>
    <path class="a" d="M850.552,450.75H820.98a1.98,1.98,0,1,0,0,3.961h29.572a1.98,1.98,0,0,0,0-3.961Zm0,0" transform="translate(-811.079 -432.664)"/>
    <path class="a" d="M850.552,408.75H820.98a1.98,1.98,0,1,0,0,3.961h29.572a1.98,1.98,0,0,0,0-3.961Zm0,0" transform="translate(-811.079 -398.057)"/>
    <path class="b" d="M834.877,379.816h-11.5V356.358A8.368,8.368,0,0,0,815.016,348H782.358A8.368,8.368,0,0,0,774,356.358v45.5a13.747,13.747,0,0,0,13.731,13.731h41.584a9.913,9.913,0,0,0,9.9-9.9V384.156a4.345,4.345,0,0,0-4.339-4.34Zm-47.146,31.816a9.782,9.782,0,0,1-9.771-9.771v-45.5a4.4,4.4,0,0,1,4.4-4.4h32.658a4.4,4.4,0,0,1,4.4,4.4v49.333a9.85,9.85,0,0,0,1.986,5.941Zm47.525-5.941a5.941,5.941,0,1,1-11.881,0V383.777h11.5a.379.379,0,0,1,.379.38Zm0,0" transform="translate(-774 -348)"/>
    <path class="a" d="M930.077,511.983c-.333-.118-.671-.24-1.01-.365v-6.126c1.191.463,1.274,1.054,2.324,1.054a1.981,1.981,0,0,0,1.391-3.385,8.051,8.051,0,0,0-3.716-1.776v-1.053a1.98,1.98,0,1,0-3.96,0v1.191c-5.367,1.41-6.49,8.242-2.926,11.038a14.36,14.36,0,0,0,2.926,1.714v8.172a5.906,5.906,0,0,1-2.543-1.1,1.981,1.981,0,0,0-2.169,3.315,9.525,9.525,0,0,0,4.712,1.767v1.186a1.98,1.98,0,0,0,3.96,0v-1.37c6.926-1.759,8.285-11.688,1.01-14.26Zm-4.971-2.2c-.172-.112-.334-.226-.481-.342-.844-.662-.719-2.636.481-3.61ZM929.067,522v-6.16c2.89,1.254,2.2,4.859,0,6.16Zm0,0" transform="translate(-893.888 -471.887)"/>
</svg>