<svg xmlns="http://www.w3.org/2000/svg" width="184.762" height="156.588" viewBox="0 0 184.762 156.588"><defs><style>.a{fill:#fff;}</style></defs><g transform="translate(-530.662 -1048.218)"><g transform="translate(540.681 1197.724)"><path class="a" d="M541.327,1162.351v5.949H540.4v-5.949h-2.155v-.832h5.337v.832Z" transform="translate(-538.244 -1161.31)"/><path class="a" d="M549.766,1165.486h-3.573a1.785,1.785,0,0,0,.477,1.337,1.491,1.491,0,0,0,1.084.408,1.844,1.844,0,0,0,1.258-.44l.37.634a1.663,1.663,0,0,1-.624.352,3.393,3.393,0,0,1-1.176.194,2.2,2.2,0,0,1-1.588-.633,2.494,2.494,0,0,1-.727-1.88,2.651,2.651,0,0,1,.745-1.968,2.166,2.166,0,0,1,1.579-.662,2.259,2.259,0,0,1,1.662.6,2.041,2.041,0,0,1,.583,1.522A1.972,1.972,0,0,1,549.766,1165.486Zm-2.134-1.917a1.389,1.389,0,0,0-1.415,1.279h2.745a1.252,1.252,0,0,0-.333-.889A1.3,1.3,0,0,0,547.632,1163.569Z" transform="translate(-535.987 -1160.889)"/><path class="a" d="M553.066,1166.949v-5.588h.88v5.439a.842.842,0,0,0,.229.628.808.808,0,0,0,.6.23v.786Q553.064,1168.443,553.066,1166.949Z" transform="translate(-533.48 -1161.361)"/><path class="a" d="M562.97,1165.486H559.4a1.784,1.784,0,0,0,.477,1.337,1.491,1.491,0,0,0,1.084.408,1.844,1.844,0,0,0,1.258-.44l.37.634a1.653,1.653,0,0,1-.624.352,3.394,3.394,0,0,1-1.176.194,2.2,2.2,0,0,1-1.588-.633,2.5,2.5,0,0,1-.727-1.88,2.652,2.652,0,0,1,.747-1.968,2.161,2.161,0,0,1,1.578-.662,2.258,2.258,0,0,1,1.662.6,2.041,2.041,0,0,1,.583,1.522A1.919,1.919,0,0,1,562.97,1165.486Zm-2.134-1.917a1.389,1.389,0,0,0-1.415,1.279h2.745a1.253,1.253,0,0,0-.333-.889A1.3,1.3,0,0,0,560.836,1163.569Z" transform="translate(-531.743 -1160.889)"/><path class="a" d="M570.035,1163.324l-.435.62a1.3,1.3,0,0,0-.474-.254,1.993,1.993,0,0,0-.669-.121,1.409,1.409,0,0,0-1.139.5,2.07,2.07,0,0,0-.422,1.377,1.869,1.869,0,0,0,.43,1.327,1.567,1.567,0,0,0,1.2.456,1.972,1.972,0,0,0,1.193-.458l.348.74a3.156,3.156,0,0,1-1.753.458,2.237,2.237,0,0,1-1.677-.68,2.529,2.529,0,0,1-.662-1.842,2.635,2.635,0,0,1,.689-1.9,2.626,2.626,0,0,1,2.714-.556A2.377,2.377,0,0,1,570.035,1163.324Z" transform="translate(-529.333 -1160.889)"/><path class="a" d="M573.111,1165.388a2.708,2.708,0,0,1,.618-1.852,2.288,2.288,0,0,1,3.28-.029,3.294,3.294,0,0,1-.015,3.774,2.3,2.3,0,0,1-3.292-.008A2.815,2.815,0,0,1,573.111,1165.388Zm.926,0q0,1.867,1.319,1.866a1.114,1.114,0,0,0,.965-.5,2.343,2.343,0,0,0,.35-1.366q0-1.841-1.315-1.842a1.132,1.132,0,0,0-.961.49A2.252,2.252,0,0,0,574.037,1165.388Z" transform="translate(-527.038 -1160.889)"/><path class="a" d="M586.534,1167.879v-3.138q0-1.171-1.015-1.172a1.018,1.018,0,0,0-.6.2,1.054,1.054,0,0,0-.379.448v3.666h-.88v-3.523a.685.685,0,0,0-.275-.576,1.17,1.17,0,0,0-.729-.211,1.01,1.01,0,0,0-.562.2,1.244,1.244,0,0,0-.424.449v3.656h-.88v-4.958h.575l.292.575a1.541,1.541,0,0,1,1.273-.667,1.632,1.632,0,0,1,1.49.662,1.143,1.143,0,0,1,.551-.472,1.925,1.925,0,0,1,.828-.19,1.542,1.542,0,0,1,1.191.456,1.82,1.82,0,0,1,.42,1.281v3.314Z" transform="translate(-524.569 -1160.889)"/><path class="a" d="M591.181,1162.9v3.162q0,1.147,1,1.148a1.37,1.37,0,0,0,.8-.251,1.2,1.2,0,0,0,.477-.577V1162.9h.879v4.958h-.879v-.684a1.367,1.367,0,0,1-.595.534,1.817,1.817,0,0,1-.872.243,1.615,1.615,0,0,1-1.249-.468,1.883,1.883,0,0,1-.433-1.328V1162.9Z" transform="translate(-521.513 -1160.867)"/><path class="a" d="M600.9,1167.879V1165a1.911,1.911,0,0,0-.238-1.109.938.938,0,0,0-.8-.318,1.31,1.31,0,0,0-.63.181,1.39,1.39,0,0,0-.5.445v3.684h-.88v-4.958h.6l.278.64a1.523,1.523,0,0,1,1.42-.732q1.631,0,1.631,1.981v3.07Z" transform="translate(-519.089 -1160.889)"/><path class="a" d="M605.839,1168.313V1164.1h-.679v-.741h1.559v4.958Zm.481-6.833a.528.528,0,0,1,.387.16.521.521,0,0,1,.161.382.548.548,0,1,1-.548-.542Z" transform="translate(-516.738 -1161.323)"/><path class="a" d="M614.8,1163.324l-.435.62a1.318,1.318,0,0,0-.476-.254,1.988,1.988,0,0,0-.669-.121,1.409,1.409,0,0,0-1.139.5,2.07,2.07,0,0,0-.42,1.377,1.863,1.863,0,0,0,.429,1.327,1.566,1.566,0,0,0,1.195.456,1.975,1.975,0,0,0,1.195-.458l.346.74a3.15,3.15,0,0,1-1.754.458,2.233,2.233,0,0,1-1.675-.68,2.529,2.529,0,0,1-.662-1.842,2.634,2.634,0,0,1,.687-1.9,2.628,2.628,0,0,1,2.715-.556A2.417,2.417,0,0,1,614.8,1163.324Z" transform="translate(-514.945 -1160.889)"/><path class="a" d="M620.988,1167.311a1.941,1.941,0,0,1-1.616.661,1.388,1.388,0,0,1-1.012-.423,1.424,1.424,0,0,1-.428-1.053,1.573,1.573,0,0,1,.659-1.276,2.64,2.64,0,0,1,1.682-.521,2,2,0,0,1,.63.12q0-1.2-1.073-1.2a1.714,1.714,0,0,0-1.269.444l-.371-.736a2.179,2.179,0,0,1,.692-.35,2.717,2.717,0,0,1,.844-.145,1.768,1.768,0,0,1,2.056,2.051v1.777a.911.911,0,0,0,.388.871v.44a1.648,1.648,0,0,1-.8-.153A.851.851,0,0,1,620.988,1167.311Zm-.085-1.867a3.207,3.207,0,0,0-.583-.091,1.672,1.672,0,0,0-1.089.342,1.019,1.019,0,0,0-.42.81q0,.773.91.773a1.5,1.5,0,0,0,1.181-.635Z" transform="translate(-512.633 -1160.889)"/><path class="a" d="M629.3,1163.324l-.435.62a1.319,1.319,0,0,0-.476-.254,1.982,1.982,0,0,0-.667-.121,1.41,1.41,0,0,0-1.14.5,2.071,2.071,0,0,0-.42,1.377,1.864,1.864,0,0,0,.429,1.327,1.566,1.566,0,0,0,1.195.456,1.975,1.975,0,0,0,1.194-.458l.346.74a3.15,3.15,0,0,1-1.754.458,2.236,2.236,0,0,1-1.676-.68,2.529,2.529,0,0,1-.662-1.842,2.64,2.64,0,0,1,.687-1.9,2.629,2.629,0,0,1,2.716-.556A2.417,2.417,0,0,1,629.3,1163.324Z" transform="translate(-510.285 -1160.889)"/><path class="a" d="M633.109,1168.313V1164.1h-.68v-.741h1.56v4.958Zm.481-6.833a.545.545,0,1,1-.54.542.537.537,0,0,1,.54-.542Z" transform="translate(-507.974 -1161.323)"/><path class="a" d="M638.009,1165.388a2.708,2.708,0,0,1,.618-1.852,2.288,2.288,0,0,1,3.28-.029,3.291,3.291,0,0,1-.013,3.774,2.3,2.3,0,0,1-3.293-.008A2.821,2.821,0,0,1,638.009,1165.388Zm.926,0q0,1.867,1.319,1.866a1.117,1.117,0,0,0,.966-.5,2.343,2.343,0,0,0,.35-1.366q0-1.841-1.316-1.842a1.129,1.129,0,0,0-.959.49A2.243,2.243,0,0,0,638.935,1165.388Z" transform="translate(-506.181 -1160.889)"/><path class="a" d="M648.742,1167.879V1165a1.912,1.912,0,0,0-.237-1.109.94.94,0,0,0-.8-.318,1.309,1.309,0,0,0-.629.181,1.391,1.391,0,0,0-.5.445v3.684h-.88v-4.958h.6l.277.64a1.524,1.524,0,0,1,1.421-.732q1.629,0,1.629,1.981v3.07Z" transform="translate(-503.711 -1160.889)"/><path class="a" d="M657.455,1165.486h-3.573a1.789,1.789,0,0,0,.476,1.337,1.493,1.493,0,0,0,1.084.408,1.841,1.841,0,0,0,1.258-.44l.371.634a1.669,1.669,0,0,1-.625.352,3.388,3.388,0,0,1-1.176.194,2.2,2.2,0,0,1-1.588-.633,2.5,2.5,0,0,1-.727-1.88,2.652,2.652,0,0,1,.747-1.968,2.163,2.163,0,0,1,1.578-.662,2.259,2.259,0,0,1,1.662.6,2.042,2.042,0,0,1,.583,1.522A1.968,1.968,0,0,1,657.455,1165.486Zm-2.134-1.917a1.389,1.389,0,0,0-1.417,1.279h2.745a1.253,1.253,0,0,0-.333-.889A1.3,1.3,0,0,0,655.321,1163.569Z" transform="translate(-501.377 -1160.889)"/><path class="a" d="M660.455,1167.583l.312-.834a2.392,2.392,0,0,0,1.184.482q.815,0,.815-.686c0-.326-.263-.608-.788-.842a6.469,6.469,0,0,1-.817-.421,1.778,1.778,0,0,1-.366-.327,1.367,1.367,0,0,1-.233-.39,1.271,1.271,0,0,1-.075-.441,1.135,1.135,0,0,1,.445-.954,1.841,1.841,0,0,1,1.161-.342,3.72,3.72,0,0,1,1.365.342l-.25.815a1.688,1.688,0,0,0-1.05-.417.91.91,0,0,0-.53.149.438.438,0,0,0-.215.374.782.782,0,0,0,.54.723l.63.286a2.186,2.186,0,0,1,.842.6,1.327,1.327,0,0,1,.266.847,1.266,1.266,0,0,1-.469,1.044,2.007,2.007,0,0,1-1.295.377A2.958,2.958,0,0,1,660.455,1167.583Z" transform="translate(-498.966 -1160.889)"/></g><g transform="translate(530.662 1151.782)"><path class="a" d="M553.539,1163.655l-18.287-25.873v25.39h-4.591v-35.392H532.6l17.8,24.472v-24.472h4.589v35.875Z" transform="translate(-530.662 -1126.211)"/><path class="a" d="M576.485,1148.486h-18.65q0,4.541,2.488,6.981a7.791,7.791,0,0,0,5.653,2.126,9.633,9.633,0,0,0,6.571-2.3l1.933,3.31a8.639,8.639,0,0,1-3.261,1.835,17.612,17.612,0,0,1-6.136,1.015,11.448,11.448,0,0,1-8.286-3.309,12.979,12.979,0,0,1-3.792-9.809,13.825,13.825,0,0,1,3.889-10.267,11.3,11.3,0,0,1,8.239-3.455q5.532,0,8.672,3.117a10.654,10.654,0,0,1,3.044,7.948A10.259,10.259,0,0,1,576.485,1148.486Zm-11.137-10a7.252,7.252,0,0,0-7.392,6.668h14.325a6.535,6.535,0,0,0-1.739-4.639A6.788,6.788,0,0,0,565.348,1138.484Z" transform="translate(-523.481 -1124.014)"/><path class="a" d="M591.179,1160.858l-7.055-9.423-6.3,9.423h-5.364l9.4-13.239-8.623-12.635H578.4l5.8,8.89,6.5-8.89h5.074l-9.4,12.635,10.291,13.239Z" transform="translate(-517.23 -1123.896)"/><path class="a" d="M595.434,1140.352h-3v-3.623h3v-5.411l4.591-1.763v7.174h7.1v3.623h-7.1v12.853q0,3.261,1.1,4.638a4.258,4.258,0,0,0,3.539,1.377,8.492,8.492,0,0,0,3.648-.893l.676,4.034a25.418,25.418,0,0,1-6.258.724,6.789,6.789,0,0,1-5.18-2.282,8.146,8.146,0,0,1-2.116-5.762Z" transform="translate(-510.808 -1125.641)"/><path class="a" d="M609.094,1128.041l6.04-1.448v29.086q0,4.783,2.85,5.7a4.962,4.962,0,0,1-4.783,2.657q-4.107,0-4.107-5.7Z" transform="translate(-505.455 -1126.593)"/><path class="a" d="M621.381,1163.3v-20.921h-3.31v-4.953h9.422V1163.3Zm3.116-35.9a3.506,3.506,0,1,1-2.476,1.027A3.373,3.373,0,0,1,624.5,1127.4Z" transform="translate(-502.57 -1126.334)"/><path class="a" d="M647.166,1160.976v-14.954q0-3.31-1.269-4.831a5.1,5.1,0,0,0-4.143-1.522,6.428,6.428,0,0,0-2.838.748,6.536,6.536,0,0,0-2.355,1.861v18.7H630.52V1135.1h4.349l1.111,2.415q2.464-2.9,7.272-2.9a9.651,9.651,0,0,1,7.285,2.767q2.67,2.767,2.669,7.718v15.873Z" transform="translate(-498.569 -1124.014)"/><path class="a" d="M676.13,1149.887H657.649a6.561,6.561,0,0,0,2.126,4.807,7.706,7.706,0,0,0,5.267,1.715q4.131,0,6.281-2.15l2.343,4.614q-3.187,2.587-9.518,2.585-5.919,0-9.361-3.466t-3.442-9.675a13.417,13.417,0,0,1,3.781-9.905,13.255,13.255,0,0,1,18.106-.435,11.5,11.5,0,0,1,3.407,8.552A16.873,16.873,0,0,1,676.13,1149.887Zm-18.263-4.542h12.707q-.628-5.677-6.282-5.677Q659.123,1139.668,657.867,1145.345Z" transform="translate(-491.876 -1124.014)"/></g><path class="a" d="M564.331,1074.548l6.795,6.754h0l.827.822h16.054a63.263,63.263,0,0,0-8.941,6.821l6.61,6.767h0l.013.012.492.5.012-.017,7.732,7.454,6.991,7.468,5.25-14.905L590.637,1092c3.581-2.63,9.591-5.835,19.083-7.626l3.9-10.5s-.225-.008-.63,0l-31.91,0c15.767-10.724,35.59-10.328,35.59-10.328l4.065-10.163C584.485,1051.172,564.331,1074.548,564.331,1074.548Z" transform="translate(10.821 1.61)"/><g transform="translate(610.826 1048.218)"><path class="a" d="M614.383,1087.464l-8.96,1.234c5.617-19.686,21.663-29.228,36.88-40.481,0,2.229.1,3.866-.016,5.486-.681,9.591-1.52,19.169-2.027,28.767a10.362,10.362,0,0,0,1.681,5.613,75.144,75.144,0,0,0,6.388,8.5c1.381,1.64,1.16,3.059.716,5-1.736,7.6-5.551,12.795-12.856,16.617-9.345,4.89-14.6,13.976-18.024,23.829-.937,2.7-2.205,3.462-4.9,3.348-4.8-.2-9.613.067-14.418-.037-1.727-.037-4.428-.029-4.968-1-1.385-2.479-3.035-5.811-2.411-8.247,4.425-17.26,10.172-34.009,22.575-47.528C614.173,1088.422,614.175,1088.154,614.383,1087.464Zm-15.336,39.548c2.217,3.307,4.1,6.118,6.316,9.42l6.335-9.42ZM612.4,1102.14c9.5,2.388,13.865.172,15.36-7.655Z" transform="translate(-591.328 -1048.218)"/></g></g></svg>