<svg xmlns="http://www.w3.org/2000/svg" width="44.256" height="45.881" viewBox="0 0 44.256 45.881">
    <g class="a" transform="translate(-575.152 -1048.218)">
        <path class="b" d="M564.331,1063.294l3.208,3.189h0l.391.388h7.58a29.89,29.89,0,0,0-4.221,3.221l3.121,3.2h0l.006.006.232.237.006-.008,3.65,3.52,3.3,3.526,2.479-7.038-7.331-2a21.834,21.834,0,0,1,9.01-3.6l1.84-4.958s-.106,0-.3,0l-15.067,0c7.444-5.064,16.8-4.876,16.8-4.876l1.919-4.8A33.841,33.841,0,0,0,564.331,1063.294Z" transform="translate(10.821 -1.884)"/>
        <g transform="translate(591.996 1048.218)">
            <path class="b" d="M602.214,1066.749l-4.231.583c2.652-9.3,10.228-13.8,17.414-19.114,0,1.052.046,1.825-.008,2.59-.321,4.528-.717,9.051-.957,13.583a4.894,4.894,0,0,0,.794,2.65,35.5,35.5,0,0,0,3.016,4.012,2.338,2.338,0,0,1,.338,2.363,10.939,10.939,0,0,1-6.07,7.846c-4.412,2.309-6.894,6.6-8.51,11.251a1.967,1.967,0,0,1-2.315,1.581c-2.265-.094-4.539.032-6.807-.017-.816-.017-2.091-.014-2.346-.471-.654-1.171-1.433-2.744-1.139-3.894,2.089-8.149,4.8-16.058,10.659-22.441C602.115,1067.2,602.115,1067.074,602.214,1066.749Zm-7.241,18.673,2.982,4.448,2.991-4.448Zm6.3-11.744c4.485,1.127,6.547.081,7.253-3.614Z" transform="translate(-591.328 -1048.218)"/>
        </g>
    </g>
</svg>